<svg xmlns="http://www.w3.org/2000/svg" xmlns:xlink="http://www.w3.org/1999/xlink" style="margin: auto; background: rgb(255, 255, 255); display: block; z-index: 1; position: relative; shape-rendering: auto;" width="1920" height="920" preserveAspectRatio="xMidYMid" viewBox="0 0 1920 920">
<g transform=""><path id="path0" d="M 1517.026207353895 746.4481515237912
c 0 21.76293656561587 -5.324973840523032 6.251056247570516 -11.576030088093548 6.251056247570516
S 1493.8741471777078 768.2110880894071 1493.8741471777078 746.4481515237912
s 5.324973840523032 -6.251056247570516 11.576030088093548 -6.251056247570516
S 1517.026207353895 724.6852149581754 1517.026207353895 746.4481515237912
z" fill="none" stroke="none"></path>
<circle cx="0" cy="0" r="4.24371618157962" fill="#de9dd6">
  <animateMotion begin="-4.066525033664263s" dur="10s" repeatCount="indefinite">
    <mpath xlink:href="#path0"></mpath>
  </animateMotion>
</circle><path id="path1" d="M 892.3998410097192 175.69378088029111
c 0 23.687315525652973 -5.795832522234238 6.8038033956662805 -12.599635917900518 6.8038033956662805
S 867.2005691739182 199.38109640594408 867.2005691739182 175.69378088029111
s 5.795832522234238 -6.8038033956662805 12.599635917900518 -6.8038033956662805
S 892.3998410097192 152.00646535463815 892.3998410097192 175.69378088029111
z" fill="none" stroke="none"></path>
<circle cx="0" cy="0" r="5.7964977150022134" fill="#51cacc">
  <animateMotion begin="-8.525229100527156s" dur="10s" repeatCount="indefinite">
    <mpath xlink:href="#path1"></mpath>
  </animateMotion>
</circle><path id="path2" d="M 97.971898709185 725.7704333632695
c 0 29.233811184839254 -7.152953800545774 8.396945765858083 -15.549899566403857 8.396945765858083
S 66.8720995763773 755.0042445481088 66.8720995763773 725.7704333632695
s 7.152953800545774 -8.396945765858083 15.549899566403857 -8.396945765858083
S 97.971898709185 696.5366221784302 97.971898709185 725.7704333632695
z" fill="none" stroke="none"></path>
<circle cx="0" cy="0" r="7.942469381015142" fill="#de9dd6">
  <animateMotion begin="-1.2221120206697988s" dur="10s" repeatCount="indefinite">
    <mpath xlink:href="#path2"></mpath>
  </animateMotion>
</circle><path id="path3" d="M 1674.108011779824 19.61020681941075
c 0 36.9946327371518 -9.05187822292012 10.62611791386275 -19.67799613678287 10.62611791386275
S 1634.7520195062582 56.604839556562546 1634.7520195062582 19.61020681941075
s 9.05187822292012 -10.62611791386275 19.67799613678287 -10.62611791386275
S 1674.108011779824 -17.384425917741048 1674.108011779824 19.61020681941075
z" fill="none" stroke="none"></path>
<circle cx="0" cy="0" r="6.6351778644544295" fill="#ff708e">
  <animateMotion begin="-5.62936104152149s" dur="10s" repeatCount="indefinite">
    <mpath xlink:href="#path3"></mpath>
  </animateMotion>
</circle><path id="path4" d="M 240.86312888311434 646.2801044154871
c 0 28.641161240037075 -7.0079437076686455 8.226716526393629 -15.234660234062273 8.226716526393629
S 210.39380841498982 674.9212656555242 210.39380841498982 646.2801044154871
s 7.0079437076686455 -8.226716526393629 15.234660234062273 -8.226716526393629
S 240.86312888311434 617.6389431754501 240.86312888311434 646.2801044154871
z" fill="none" stroke="none"></path>
<circle cx="0" cy="0" r="6.579119507040528" fill="#9df871">
  <animateMotion begin="-5.8710840330371745s" dur="10s" repeatCount="indefinite">
    <mpath xlink:href="#path4"></mpath>
  </animateMotion>
</circle><path id="path5" d="M 1484.6815048853196 557.8913991525613
c 0 36.71042255159015 -8.982337432835887 10.544483073329086 -19.526820506164974 10.544483073329086
S 1445.6278638729896 594.6018217041515 1445.6278638729896 557.8913991525613
s 8.982337432835887 -10.544483073329086 19.526820506164974 -10.544483073329086
S 1484.6815048853196 521.1809766009712 1484.6815048853196 557.8913991525613
z" fill="none" stroke="none"></path>
<circle cx="0" cy="0" r="5.829804731266191" fill="#e0ff77">
  <animateMotion begin="-1.2742155454839654s" dur="10s" repeatCount="indefinite">
    <mpath xlink:href="#path5"></mpath>
  </animateMotion>
</circle><path id="path6" d="M 790.1801381100981 173.95268090422454
c 0 32.98247738438092 -8.070180636603842 9.473690312534947 -17.54387094913879 9.473690312534947
S 755.0923962118206 206.93515828860546 755.0923962118206 173.95268090422454
s 8.070180636603842 -9.473690312534947 17.54387094913879 -9.473690312534947
S 790.1801381100981 140.9702035198436 790.1801381100981 173.95268090422454
z" fill="none" stroke="none"></path>
<circle cx="0" cy="0" r="6.087821424830959" fill="#ff708e">
  <animateMotion begin="-7.298104704115684s" dur="10s" repeatCount="indefinite">
    <mpath xlink:href="#path6"></mpath>
  </animateMotion>
</circle><path id="path7" d="M 813.4059552406825 466.11536207428657
c 0 32.43708668123295 -7.9367339751952946 9.317035536098825 -17.25376951129412 9.317035536098825
S 778.8984162180943 498.5524487555195 778.8984162180943 466.11536207428657
s 7.9367339751952946 -9.317035536098825 17.25376951129412 -9.317035536098825
S 813.4059552406825 433.67827539305364 813.4059552406825 466.11536207428657
z" fill="none" stroke="none"></path>
<circle cx="0" cy="0" r="6.276003222738513" fill="#de9dd6">
  <animateMotion begin="-5.902871473924414s" dur="10s" repeatCount="indefinite">
    <mpath xlink:href="#path7"></mpath>
  </animateMotion>
</circle><path id="path8" d="M 1184.0254684921492 797.090997985124
c 0 26.563764951722735 -6.4996446158470516 7.630017592516105 -14.129662208363156 7.630017592516105
S 1155.7661440754227 823.6547629368467 1155.7661440754227 797.090997985124
s 6.4996446158470516 -7.630017592516105 14.129662208363156 -7.630017592516105
S 1184.0254684921492 770.5272330334012 1184.0254684921492 797.090997985124
z" fill="none" stroke="none"></path>
<circle cx="0" cy="0" r="7.7958948628317515" fill="#de9dd6">
  <animateMotion begin="-4.411792995752761s" dur="10s" repeatCount="indefinite">
    <mpath xlink:href="#path8"></mpath>
  </animateMotion>
</circle><path id="path9" d="M 80.38656830567972 609.2907404711915
c 0 25.726707577249034 -6.294832705071572 7.389586218997064 -13.684418924068636 7.389586218997064
S 53.01773045754244 635.0174480484405 53.01773045754244 609.2907404711915
s 6.294832705071572 -7.389586218997064 13.684418924068636 -7.389586218997064
S 80.38656830567972 583.5640328939425 80.38656830567972 609.2907404711915
z" fill="none" stroke="none"></path>
<circle cx="0" cy="0" r="6.147136822281103" fill="#de9dd6">
  <animateMotion begin="-0.2812544152897023s" dur="10s" repeatCount="indefinite">
    <mpath xlink:href="#path9"></mpath>
  </animateMotion>
</circle><path id="path10" d="M 866.6951276994924 829.0983298109858
c 0 29.53605703924137 -7.226907573431398 8.483761064462946 -15.710668637894345 8.483761064462946
S 835.2737904237036 858.6343868502272 835.2737904237036 829.0983298109858
s 7.226907573431398 -8.483761064462946 15.710668637894345 -8.483761064462946
S 866.6951276994924 799.5622727717443 866.6951276994924 829.0983298109858
z" fill="none" stroke="none"></path>
<circle cx="0" cy="0" r="5.067247316825167" fill="#e0ff77">
  <animateMotion begin="-0.9546203109896845s" dur="10s" repeatCount="indefinite">
    <mpath xlink:href="#path10"></mpath>
  </animateMotion>
</circle><path id="path11" d="M 1881.9913447289675 183.6980724852673
c 0 21.741029755831036 -5.3196136636607845 6.244763866036574 -11.564377529697358 6.244763866036574
S 1858.8625896695728 205.43910224109834 1858.8625896695728 183.6980724852673
s 5.3196136636607845 -6.244763866036574 11.564377529697358 -6.244763866036574
S 1881.9913447289675 161.95704272943624 1881.9913447289675 183.6980724852673
z" fill="none" stroke="none"></path>
<circle cx="0" cy="0" r="5.405693200195446" fill="#ff708e">
  <animateMotion begin="-1.470166358681304s" dur="10s" repeatCount="indefinite">
    <mpath xlink:href="#path11"></mpath>
  </animateMotion>
</circle><path id="path12" d="M 642.9686017908989 541.7182262114231
c 0 25.361678738276684 -6.205517138088975 7.284737509930538 -13.490254648019512 7.284737509930538
S 615.98809249486 567.0799049496999 615.98809249486 541.7182262114231
s 6.205517138088975 -7.284737509930538 13.490254648019512 -7.284737509930538
S 642.9686017908989 516.3565474731464 642.9686017908989 541.7182262114231
z" fill="none" stroke="none"></path>
<circle cx="0" cy="0" r="7.66793785141791" fill="#e0ff77">
  <animateMotion begin="-1.2289367428650633s" dur="10s" repeatCount="indefinite">
    <mpath xlink:href="#path12"></mpath>
  </animateMotion>
</circle><path id="path13" d="M 665.6854003498995 781.7276436253319
c 0 33.91367659064601 -8.298027250902747 9.74116242497279 -18.039189675875537 9.74116242497279
S 629.6070209981485 815.6413202159779 629.6070209981485 781.7276436253319
s 8.298027250902747 -9.74116242497279 18.039189675875537 -9.74116242497279
S 665.6854003498995 747.8139670346859 665.6854003498995 781.7276436253319
z" fill="none" stroke="none"></path>
<circle cx="0" cy="0" r="6.342276701644537" fill="#51cacc">
  <animateMotion begin="-9.582188695647151s" dur="10s" repeatCount="indefinite">
    <mpath xlink:href="#path13"></mpath>
  </animateMotion>
</circle><path id="path14" d="M 1299.096446472514 377.14769195419603
c 0 24.020439019096123 -5.877341462119264 6.899487803357397 -12.77682926547666 6.899487803357397
S 1273.5427879415606 401.16813097329214 1273.5427879415606 377.14769195419603
s 5.877341462119264 -6.899487803357397 12.77682926547666 -6.899487803357397
S 1299.096446472514 353.12725293509993 1299.096446472514 377.14769195419603
z" fill="none" stroke="none"></path>
<circle cx="0" cy="0" r="4.125484422753287" fill="#e0ff77">
  <animateMotion begin="-9.587576643091944s" dur="10s" repeatCount="indefinite">
    <mpath xlink:href="#path14"></mpath>
  </animateMotion>
</circle><path id="path15" d="M 1457.58682130588 369.8284200288088
c 0 31.979647999508536 -7.82480748924145 9.185643574326921 -17.01045106356837 9.185643574326921
S 1423.5659191787433 401.80806802831734 1423.5659191787433 369.8284200288088
s 7.82480748924145 -9.185643574326921 17.01045106356837 -9.185643574326921
S 1457.58682130588 337.8487720293003 1457.58682130588 369.8284200288088
z" fill="none" stroke="none"></path>
<circle cx="0" cy="0" r="7.727863855566645" fill="#e0ff77">
  <animateMotion begin="-6.406244063355979s" dur="10s" repeatCount="indefinite">
    <mpath xlink:href="#path15"></mpath>
  </animateMotion>
</circle><path id="path16" d="M 1601.1261118788902 236.20224750874056
c 0 22.569024264983018 -5.52220806483627 6.482592076112144 -12.004800140948413 6.482592076112144
S 1577.1165115969934 258.7712717737236 1577.1165115969934 236.20224750874056
s 5.52220806483627 -6.482592076112144 12.004800140948413 -6.482592076112144
S 1601.1261118788902 213.63322324375753 1601.1261118788902 236.20224750874056
z" fill="none" stroke="none"></path>
<circle cx="0" cy="0" r="7.197897421638138" fill="#51cacc">
  <animateMotion begin="-4.283374518264516s" dur="10s" repeatCount="indefinite">
    <mpath xlink:href="#path16"></mpath>
  </animateMotion>
</circle><path id="path17" d="M 1695.2523081937163 837.1211276430781
c 0 35.25506382378952 -8.626239020714456 10.126454502577841 -18.752693523292297 10.126454502577841
S 1657.7469211471318 872.3761914668677 1657.7469211471318 837.1211276430781
s 8.626239020714456 -10.126454502577841 18.752693523292297 -10.126454502577841
S 1695.2523081937163 801.8660638192886 1695.2523081937163 837.1211276430781
z" fill="none" stroke="none"></path>
<circle cx="0" cy="0" r="5.643077501179297" fill="#ff708e">
  <animateMotion begin="-3.0965009582328706s" dur="10s" repeatCount="indefinite">
    <mpath xlink:href="#path17"></mpath>
  </animateMotion>
</circle><path id="path18" d="M 966.7991509800081 781.0376755171083
c 0 35.17834040415319 -8.60746626910131 10.104416924597192 -18.711883193698505 10.104416924597192
S 929.375384592611 816.2160159212615 929.375384592611 781.0376755171083
s 8.60746626910131 -10.104416924597192 18.711883193698505 -10.104416924597192
S 966.7991509800081 745.859335112955 966.7991509800081 781.0376755171083
z" fill="none" stroke="none"></path>
<circle cx="0" cy="0" r="6.493882979079445" fill="#e0ff77">
  <animateMotion begin="-9.101138468967251s" dur="10s" repeatCount="indefinite">
    <mpath xlink:href="#path18"></mpath>
  </animateMotion>
</circle><path id="path19" d="M 968.4129421005601 606.8839047477741
c 0 20.850740878443325 -5.101777023448898 5.989042592744359 -11.090819616193258 5.989042592744359
S 946.2313028681737 627.7346456262173 946.2313028681737 606.8839047477741
s 5.101777023448898 -5.989042592744359 11.090819616193258 -5.989042592744359
S 968.4129421005601 586.0331638693308 968.4129421005601 606.8839047477741
z" fill="none" stroke="none"></path>
<circle cx="0" cy="0" r="4.286526539419021" fill="#e0ff77">
  <animateMotion begin="-7.458800562091268s" dur="10s" repeatCount="indefinite">
    <mpath xlink:href="#path19"></mpath>
  </animateMotion>
</circle><path id="path20" d="M 307.36392589825596 435.8192101432245
c 0 23.834270524232252 -5.8317895963546995 6.8460138739816045 -12.677803470336304 6.8460138739816045
S 282.00831895758336 459.65348066745673 282.00831895758336 435.8192101432245
s 5.8317895963546995 -6.8460138739816045 12.677803470336304 -6.8460138739816045
S 307.36392589825596 411.98493961899226 307.36392589825596 435.8192101432245
z" fill="none" stroke="none"></path>
<circle cx="0" cy="0" r="6.2409504450774405" fill="#de9dd6">
  <animateMotion begin="-8.534074453110087s" dur="10s" repeatCount="indefinite">
    <mpath xlink:href="#path20"></mpath>
  </animateMotion>
</circle><path id="path21" d="M 945.9980387071972 674.7866110305816
c 0 19.41104899304764 -4.7495119876605925 5.575514072471131 -10.325026060131723 5.575514072471131
S 925.3479865869339 694.1976600236293 925.3479865869339 674.7866110305816
s 4.7495119876605925 -5.575514072471131 10.325026060131723 -5.575514072471131
S 945.9980387071972 655.375562037534 945.9980387071972 674.7866110305816
z" fill="none" stroke="none"></path>
<circle cx="0" cy="0" r="6.808834651906962" fill="#51cacc">
  <animateMotion begin="-5.5106309662286375s" dur="10s" repeatCount="indefinite">
    <mpath xlink:href="#path21"></mpath>
  </animateMotion>
</circle><path id="path22" d="M 1864.2563357078884 886.8998297236002
c 0 33.260764479944875 -8.13827215998651 9.553623839984166 -17.691895999970676 9.553623839984166
S 1828.872543707947 920.1605942035451 1828.872543707947 886.8998297236002
s 8.13827215998651 -9.553623839984166 17.691895999970676 -9.553623839984166
S 1864.2563357078884 853.6390652436553 1864.2563357078884 886.8998297236002
z" fill="none" stroke="none"></path>
<circle cx="0" cy="0" r="6.734619015824305" fill="#e0ff77">
  <animateMotion begin="-2.85608682132779s" dur="10s" repeatCount="indefinite">
    <mpath xlink:href="#path22"></mpath>
  </animateMotion>
</circle><path id="path23" d="M 1240.5219199196774 291.67113580415736
c 0 26.427534705540143 -6.46631168327046 7.590887628187063 -14.057199311457522 7.590887628187063
S 1212.4075212967625 318.0986705096975 1212.4075212967625 291.67113580415736
s 6.46631168327046 -7.590887628187063 14.057199311457522 -7.590887628187063
S 1240.5219199196774 265.2436010986172 1240.5219199196774 291.67113580415736
z" fill="none" stroke="none"></path>
<circle cx="0" cy="0" r="6.5872592418224105" fill="#de9dd6">
  <animateMotion begin="-6.9172814612402345s" dur="10s" repeatCount="indefinite">
    <mpath xlink:href="#path23"></mpath>
  </animateMotion>
</circle><path id="path24" d="M 347.5658281592386 697.9308750875105
c 0 25.615743675767757 -6.267681963219769 7.3577136089971225 -13.625395572216892 7.3577136089971225
S 320.3150370148048 723.5466187632782 320.3150370148048 697.9308750875105
s 6.267681963219769 -7.3577136089971225 13.625395572216892 -7.3577136089971225
S 347.5658281592386 672.3151314117428 347.5658281592386 697.9308750875105
z" fill="none" stroke="none"></path>
<circle cx="0" cy="0" r="5.008352049278786" fill="#9df871">
  <animateMotion begin="-3.7045761206504846s" dur="10s" repeatCount="indefinite">
    <mpath xlink:href="#path24"></mpath>
  </animateMotion>
</circle><path id="path25" d="M 602.6906674214405 355.6503541440127
c 0 35.5700048623076 -8.703299062053986 10.216916290237288 -18.920215352291272 10.216916290237288
S 564.8502367168579 391.2203590063203 564.8502367168579 355.6503541440127
s 8.703299062053986 -10.216916290237288 18.920215352291272 -10.216916290237288
S 602.6906674214405 320.0803492817051 602.6906674214405 355.6503541440127
z" fill="none" stroke="none"></path>
<circle cx="0" cy="0" r="6.437710747517393" fill="#51cacc">
  <animateMotion begin="-0.40392654782904547s" dur="10s" repeatCount="indefinite">
    <mpath xlink:href="#path25"></mpath>
  </animateMotion>
</circle><path id="path26" d="M 1696.445058620452 736.5989542398097
c 0 27.150608323829168 -6.643233951575221 7.7985789866317825 -14.441812938207004 7.7985789866317825
S 1667.561432744038 763.7495625636388 1667.561432744038 736.5989542398097
s 6.643233951575221 -7.7985789866317825 14.441812938207004 -7.7985789866317825
S 1696.445058620452 709.4483459159806 1696.445058620452 736.5989542398097
z" fill="none" stroke="none"></path>
<circle cx="0" cy="0" r="4.753367317738248" fill="#de9dd6">
  <animateMotion begin="-0.370103288508159s" dur="10s" repeatCount="indefinite">
    <mpath xlink:href="#path26"></mpath>
  </animateMotion>
</circle><path id="path27" d="M 67.26875969465829 363.6554044141788
c 0 26.984938453520662 -6.602697706712502 7.750992960053808 -14.35369066676631 7.750992960053808
S 38.56137836112567 390.6403428676995 38.56137836112567 363.6554044141788
s 6.602697706712502 -7.750992960053808 14.35369066676631 -7.750992960053808
S 67.26875969465829 336.67046596065813 67.26875969465829 363.6554044141788
z" fill="none" stroke="none"></path>
<circle cx="0" cy="0" r="7.461408655655743" fill="#e0ff77">
  <animateMotion begin="-4.119198377443882s" dur="10s" repeatCount="indefinite">
    <mpath xlink:href="#path27"></mpath>
  </animateMotion>
</circle><path id="path28" d="M 1193.431172581632 393.4433614802081
c 0 21.324040316588047 -5.217584332782181 6.124990303700822 -11.342574636483002 6.124990303700822
S 1170.7460233086658 414.76740179679615 1170.7460233086658 393.4433614802081
s 5.217584332782181 -6.124990303700822 11.342574636483002 -6.124990303700822
S 1193.431172581632 372.1193211636201 1193.431172581632 393.4433614802081
z" fill="none" stroke="none"></path>
<circle cx="0" cy="0" r="6.3876131143572445" fill="#e0ff77">
  <animateMotion begin="-5.481322392105071s" dur="10s" repeatCount="indefinite">
    <mpath xlink:href="#path28"></mpath>
  </animateMotion>
</circle><path id="path29" d="M 896.766881619208 104.88280554061346
c 0 19.564905589800073 -4.787157750695762 5.619706924729809 -10.40686467542557 5.619706924729809
S 875.9531522683568 124.44771113041354 875.9531522683568 104.88280554061346
s 4.787157750695762 -5.619706924729809 10.40686467542557 -5.619706924729809
S 896.766881619208 85.31789995081338 896.766881619208 104.88280554061346
z" fill="none" stroke="none"></path>
<circle cx="0" cy="0" r="5.2966255646267815" fill="#de9dd6">
  <animateMotion begin="-1.0152965217495713s" dur="10s" repeatCount="indefinite">
    <mpath xlink:href="#path29"></mpath>
  </animateMotion>
</circle></g>
</svg>